<?xml version="1.0" encoding="UTF-8"?>
<svg version="1.1" xmlns="http://www.w3.org/2000/svg" width="180" height="180">
<path d="M0 0 C59.4 0 118.8 0 180 0 C180 59.4 180 118.8 180 180 C120.6 180 61.2 180 0 180 C0 120.6 0 61.2 0 0 Z " fill="#FEFBFB" transform="translate(0,0)"/>
<path d="M0 0 C0.66 0 1.32 0 2 0 C2.32613281 0.97582031 2.65226562 1.95164062 2.98828125 2.95703125 C3.42922834 4.24234511 3.87066008 5.52749278 4.3125 6.8125 C4.52583984 7.45509766 4.73917969 8.09769531 4.95898438 8.75976562 C6.17385154 12.25930836 7.30106987 14.50421515 10 17 C11.02734375 19.19921875 11.02734375 19.19921875 11.9375 21.6875 C13.4533938 25.68129712 15.15656179 29.44455792 17.16796875 33.2109375 C18 35 18 35 18.48828125 37.1640625 C18.74158203 38.07285156 18.74158203 38.07285156 19 39 C19.66 39.33 20.32 39.66 21 40 C21.99 42.97 21.99 42.97 23 46 C42.8 46.495 42.8 46.495 63 47 C61.99715643 52.01421783 61.02055577 53.7090652 58 57.625 C54.97227849 61.52937225 54.97227849 61.52937225 53 66 C52.34 66 51.68 66 51 66 C51 66.66 51 67.32 51 68 C46.57250742 72.02499326 41.64536295 75.80760997 35.5625 76.25 C34.716875 76.1675 33.87125 76.085 33 76 C33 76.66 33 77.32 33 78 C20.96069669 78.06950025 8.92144108 78.12281151 -3.11802197 78.15543652 C-8.70839205 78.17109462 -14.29862491 78.19233576 -19.88891602 78.22631836 C-25.28352012 78.25890631 -30.67799221 78.27685193 -36.07268715 78.28463173 C-38.13118887 78.29017622 -40.18968334 78.3010032 -42.24812889 78.31719017 C-45.13066619 78.33895673 -48.01265745 78.34196722 -50.89526367 78.34057617 C-51.74690598 78.351362 -52.59854828 78.36214783 -53.47599792 78.3732605 C-58.23157104 78.34841605 -61.04046651 77.88656835 -65 75 C-66.5778125 74.4121875 -66.5778125 74.4121875 -68.1875 73.8125 C-76.18279668 70.4359305 -82.23023842 64.79967437 -85.97265625 57.03515625 C-87.02531988 54.7562134 -87.02531988 54.7562134 -89.3125 52.25 C-91 50 -91 50 -91 45 C-71.2 45 -51.4 45 -31 45 C-31 44.34 -31 43.68 -31 43 C-28.69 43 -26.38 43 -24 43 C-24 42.34 -24 41.68 -24 41 C-22.68 41 -21.36 41 -20 41 C-20 40.34 -20 39.68 -20 39 C-19.01 39 -18.02 39 -17 39 C-17 38.34 -17 37.68 -17 37 C-16.34 37 -15.68 37 -15 37 C-15 36.34 -15 35.68 -15 35 C-14.34 35 -13.68 35 -13 35 C-12.62875 34.195625 -12.62875 34.195625 -12.25 33.375 C-11 31 -11 31 -9 28.125 C-7.06637651 25.10371329 -5.98060728 22.43212548 -5 19 C-4.34 19 -3.68 19 -3 19 C-2.86722656 17.87980469 -2.73445313 16.75960937 -2.59765625 15.60546875 C-2.41943431 14.13279271 -2.24103989 12.66013753 -2.0625 11.1875 C-1.97548828 10.44951172 -1.88847656 9.71152344 -1.79882812 8.95117188 C-1.41783454 5.83266879 -0.99630626 2.98891878 0 0 Z " fill="#E22029" transform="translate(103,94)"/>
<path d="M0 0 C0.82811691 -0.0065712 1.65623383 -0.0131424 2.50944519 -0.01991272 C5.25515844 -0.03964791 8.00081675 -0.0513141 10.74658203 -0.0612793 C11.68743778 -0.06535482 12.62829353 -0.06943035 13.59766006 -0.07362938 C18.58577505 -0.09449956 23.57386251 -0.10879237 28.56201172 -0.11816406 C33.68718898 -0.12917899 38.81192613 -0.16351889 43.93694878 -0.20333576 C47.89896383 -0.22963872 51.86087669 -0.23786838 55.82297134 -0.24144554 C57.7101956 -0.24628298 59.59741618 -0.25781464 61.48455429 -0.27648354 C86.52994632 -0.5086781 86.52994632 -0.5086781 95.87939453 7.11450195 C96.89609065 8.11870795 97.89787586 9.13838663 98.87939453 10.17700195 C99.72501953 10.94012695 100.57064453 11.70325195 101.44189453 12.48950195 C106.11903931 17.64635389 109.50331648 22.29661168 110.87939453 29.17700195 C97.67939453 29.50700195 84.47939453 29.83700195 70.87939453 30.17700195 C69.22939453 33.47700195 67.57939453 36.77700195 65.87939453 40.17700195 C65.21939453 40.17700195 64.55939453 40.17700195 63.87939453 40.17700195 C63.65251953 40.96075195 63.42564453 41.74450195 63.19189453 42.55200195 C61.4727852 47.3000182 59.19854733 51.69802747 56.87939453 56.17700195 C56.21939453 56.17700195 55.55939453 56.17700195 54.87939453 56.17700195 C54.41533203 57.84762695 54.41533203 57.84762695 53.94189453 59.55200195 C52.87939453 63.17700195 52.87939453 63.17700195 51.87939453 65.17700195 C51.21939453 65.17700195 50.55939453 65.17700195 49.87939453 65.17700195 C49.67443359 64.08000977 49.46947266 62.98301758 49.25830078 61.8527832 C48.9861816 60.39835308 48.71404528 58.94392617 48.44189453 57.48950195 C48.3071875 56.76827148 48.17248047 56.04704102 48.03369141 55.30395508 C47.33840609 51.59011397 46.63164751 47.87983942 45.87939453 44.17700195 C45.21939453 44.17700195 44.55939453 44.17700195 43.87939453 44.17700195 C42.05210405 42.2416943 40.41044075 40.18652572 38.73095703 38.12231445 C36.87341505 36.17071971 35.34468144 35.20872995 32.87939453 34.17700195 C32.87939453 33.51700195 32.87939453 32.85700195 32.87939453 32.17700195 C28.5290454 31.35148281 24.38135524 31.02925795 19.95605469 30.97167969 C19.29193573 30.96178009 18.62781677 30.95188049 17.943573 30.94168091 C15.76856946 30.91032608 13.59354414 30.88541254 11.41845703 30.8605957 C9.90245018 30.84000364 8.38644877 30.8190066 6.87045288 30.79762268 C2.89541052 30.74263445 -1.07968164 30.69312343 -5.05480957 30.64477539 C-9.11715079 30.59438976 -13.17942039 30.53879308 -17.24169922 30.48364258 C-25.20127393 30.37634571 -33.16090888 30.27483848 -41.12060547 30.17700195 C-40.51521269 26.158239 -39.89900866 23.23435052 -37.68310547 19.80200195 C-37.25126953 19.11364258 -36.81943359 18.4252832 -36.37451172 17.71606445 C-35.96072266 17.20817383 -35.54693359 16.7002832 -35.12060547 16.17700195 C-34.46060547 16.17700195 -33.80060547 16.17700195 -33.12060547 16.17700195 C-33.12060547 15.51700195 -33.12060547 14.85700195 -33.12060547 14.17700195 C-32.46060547 14.17700195 -31.80060547 14.17700195 -31.12060547 14.17700195 C-31.12060547 13.51700195 -31.12060547 12.85700195 -31.12060547 12.17700195 C-30.46060547 12.17700195 -29.80060547 12.17700195 -29.12060547 12.17700195 C-29.12060547 11.51700195 -29.12060547 10.85700195 -29.12060547 10.17700195 C-23.74043883 5.6108558 -17.84358764 3.05349698 -11.12060547 1.17700195 C-7.38293177 -0.06888928 -3.89428268 0.01338526 0 0 Z " fill="#E2212A" transform="translate(54.12060546875,5.822998046875)"/>
<path d="M0 0 C0.66 0 1.32 0 2 0 C2.33 1.98 2.66 3.96 3 6 C3.66 6 4.32 6 5 6 C5.82617899 8.60048221 6.63586977 11.20444131 7.4375 13.8125 C7.66759766 14.53115234 7.89769531 15.24980469 8.13476562 15.99023438 C14.88930693 38.21169634 13.72967526 69.14746917 3 90 C1.515 90.495 1.515 90.495 0 91 C-0.27038086 90.41847168 -0.54076172 89.83694336 -0.81933594 89.23779297 C-6.54224244 76.97887632 -12.47319266 64.92844055 -19.20214844 53.18505859 C-23.8019667 45.01938256 -23.8019667 45.01938256 -24 40 C-21.81525351 33.17266722 -17.65582677 27.12333509 -14 21 C-13.20332458 19.63084926 -12.40779739 18.2610299 -11.61328125 16.890625 C-10.80502554 15.51021868 -9.99643613 14.13000769 -9.1875 12.75 C-8.80255371 12.08162109 -8.41760742 11.41324219 -8.02099609 10.72460938 C-7.06949209 9.11560305 -6.04129844 7.5524042 -5 6 C-4.34 6 -3.68 6 -3 6 C-2.690625 5.38125 -2.38125 4.7625 -2.0625 4.125 C-1.375 2.75 -0.6875 1.375 0 0 Z " fill="#E32830" transform="translate(168,42)"/>
<path d="M0 0 C4.05679377 -0.02477373 8.11355806 -0.04289493 12.17041016 -0.05493164 C13.54964973 -0.05995118 14.92888402 -0.06676819 16.30810547 -0.07543945 C18.29392183 -0.0876092 20.27977749 -0.09271633 22.265625 -0.09765625 C23.45961914 -0.10289307 24.65361328 -0.10812988 25.88378906 -0.11352539 C28.49417657 -0.01842744 30.5748553 0.06058955 33 1 C36.63195059 6.31821337 36.65352235 11.40841989 35.54296875 17.51171875 C35.06832435 19.68688769 34.5586893 21.84505556 34 24 C33.34 24 32.68 24 32 24 C31.896875 24.94875 31.79375 25.8975 31.6875 26.875 C31 30 31 30 28 32 C25.38590855 32.17145815 22.88130326 32.23233432 20.26953125 32.1953125 C19.51911057 32.1924826 18.76868988 32.18965271 17.99552917 32.18673706 C15.60102325 32.17555062 13.20689269 32.15044928 10.8125 32.125 C9.18815645 32.11496819 7.56380703 32.10584269 5.93945312 32.09765625 C1.959491 32.07561637 -2.02019088 32.0410974 -6 32 C-4.92572699 23.95957981 -3.72948834 16.02374665 -1.875 8.125 C-1.69324219 7.32964844 -1.51148438 6.53429687 -1.32421875 5.71484375 C-0.8878792 3.80872889 -0.44473874 1.90417265 0 0 Z " fill="#E2242D" transform="translate(35,71)"/>
<path d="M0 0 C2.31 0.33 4.62 0.66 7 1 C7 1.66 7 2.32 7 3 C40 3 73 3 107 3 C107 2.34 107 1.68 107 1 C108.65 1 110.3 1 112 1 C110.875 2.5 110.875 2.5 109 4 C105.8125 4.1875 105.8125 4.1875 103 4 C103 4.66 103 5.32 103 6 C90.96069669 6.06950025 78.92144108 6.12281151 66.88197803 6.15543652 C61.29160795 6.17109462 55.70137509 6.19233576 50.11108398 6.22631836 C44.71647988 6.25890631 39.32200779 6.27685193 33.92731285 6.28463173 C31.86881113 6.29017622 29.81031666 6.3010032 27.75187111 6.31719017 C24.86933381 6.33895673 21.98734255 6.34196722 19.10473633 6.34057617 C17.82727287 6.35675491 17.82727287 6.35675491 16.52400208 6.3732605 C11.77969853 6.34847493 8.94007715 5.90433972 5 3 C3.34630643 2.30177383 1.68272986 1.62501395 0 1 C0 0.67 0 0.34 0 0 Z " fill="#E95960" transform="translate(33,166)"/>
<path d="M0 0 C0.82884705 -0.00671722 1.65769409 -0.01343445 2.51165771 -0.02035522 C5.23024628 -0.0392283 7.94858646 -0.04325431 10.66723633 -0.04541016 C12.57522174 -0.05184664 14.48320618 -0.05857562 16.39118958 -0.06558228 C20.38467697 -0.07752919 24.37807804 -0.08126588 28.37158203 -0.08007812 C33.4574136 -0.07987535 38.54268381 -0.10714651 43.62838268 -0.14162254 C47.56895933 -0.16400078 51.50940335 -0.1679123 55.450037 -0.16685867 C57.32329551 -0.16919941 59.19655854 -0.17793552 61.06975365 -0.19352341 C82.58343622 -0.35576191 82.58343622 -0.35576191 91.31176758 4.29052734 C93.65544128 6.93325806 93.65544128 6.93325806 95.31176758 9.29052734 C93.33176758 8.63052734 91.35176758 7.97052734 89.31176758 7.29052734 C89.31176758 6.63052734 89.31176758 5.97052734 89.31176758 5.29052734 C82.97549383 3.61701199 77.108853 3.00854106 70.56933594 3.06347656 C69.6414325 3.06318451 68.71352905 3.06289246 67.75750732 3.06259155 C64.72211006 3.06397336 61.68696516 3.07947997 58.65161133 3.09521484 C56.53455235 3.09894907 54.41749163 3.1017941 52.3004303 3.10379028 C46.75203608 3.11139451 41.20374803 3.13101522 35.65539551 3.15319824 C29.98422684 3.17372607 24.31304088 3.18280679 18.6418457 3.19287109 C7.53177324 3.21426431 -3.57822073 3.24836121 -14.68823242 3.29052734 C-14.68823242 3.95052734 -14.68823242 4.61052734 -14.68823242 5.29052734 C-16.33823242 5.29052734 -17.98823242 5.29052734 -19.68823242 5.29052734 C-19.68823242 5.95052734 -19.68823242 6.61052734 -19.68823242 7.29052734 C-21.00823242 6.96052734 -22.32823242 6.63052734 -23.68823242 6.29052734 C-16.01566616 1.49517343 -8.95377826 -0.01061776 0 0 Z " fill="#EB6970" transform="translate(54.688232421875,5.70947265625)"/>
<path d="M0 0 C1.32 0.33 2.64 0.66 4 1 C3.01 1 2.02 1 1 1 C1 1.66 1 2.32 1 3 C-0.32 3 -1.64 3 -3 3 C-3 3.66 -3 4.32 -3 5 C-10.42368127 6.78300606 -17.51369007 7.33134237 -25.1328125 7.4140625 C-26.80958572 7.44311172 -26.80958572 7.44311172 -28.52023315 7.4727478 C-32.05508028 7.53204289 -35.58996087 7.57872733 -39.125 7.625 C-41.53647174 7.66322591 -43.9479305 7.70228025 -46.359375 7.7421875 C-52.23946724 7.83770268 -58.11963908 7.92289342 -64 8 C-64.33 9.32 -64.66 10.64 -65 12 C-67 9 -67 9 -67 4 C-47.2 4 -27.4 4 -7 4 C-7 3.34 -7 2.68 -7 2 C-4.69 2 -2.38 2 0 2 C0 1.34 0 0.68 0 0 Z " fill="#EA6168" transform="translate(79,135)"/>
<path d="M0 0 C0 3 0 3 -2 8 C18.13 8 38.26 8 59 8 C59 8.66 59 9.32 59 10 C38.21 10 17.42 10 -4 10 C-2.875 3.25 -2.875 3.25 0 0 Z " fill="#EA656C" transform="translate(17,26)"/>
<path d="M0 0 C1.5 1.25 1.5 1.25 3 3 C3 4.32 3 5.64 3 7 C1.73816895 7.02505615 0.47633789 7.0501123 -0.82373047 7.07592773 C-5.49408569 7.16992106 -10.16428937 7.27016131 -14.83447266 7.37231445 C-16.85787416 7.41569395 -18.88131299 7.45736678 -20.90478516 7.49731445 C-23.80903384 7.55494408 -26.71309411 7.6186594 -29.6171875 7.68359375 C-30.52556366 7.70030624 -31.43393982 7.71701874 -32.36984253 7.73423767 C-33.21056305 7.75418289 -34.05128357 7.77412811 -34.91748047 7.79467773 C-35.65916473 7.81022202 -36.400849 7.8257663 -37.16500854 7.84178162 C-39.09674104 7.89473496 -39.09674104 7.89473496 -41 9 C-40.34 7.68 -39.68 6.36 -39 5 C-26.13 4.67 -13.26 4.34 0 4 C0 2.68 0 1.36 0 0 Z " fill="#F19A9E" transform="translate(164,30)"/>
<path d="M0 0 C14.19 0 28.38 0 43 0 C42.67 1.65 42.34 3.3 42 5 C41.505 3.515 41.505 3.515 41 2 C27.8 2 14.6 2 1 2 C0.67 1.34 0.34 0.68 0 0 Z " fill="#F19B9F" transform="translate(125,139)"/>
<path d="M0 0 C13.2 0 26.4 0 40 0 C39.67 1.65 39.34 3.3 39 5 C38.505 3.515 38.505 3.515 38 2 C25.46 2 12.92 2 0 2 C0 1.34 0 0.68 0 0 Z " fill="#E53740" transform="translate(126,141)"/>
<path d="M0 0 C1.32 0.33 2.64 0.66 4 1 C3.01 1 2.02 1 1 1 C1 1.66 1 2.32 1 3 C-0.32 3 -1.64 3 -3 3 C-3 3.66 -3 4.32 -3 5 C-24.12 5 -45.24 5 -67 5 C-67 4.67 -67 4.34 -67 4 C-47.2 4 -27.4 4 -7 4 C-7 3.34 -7 2.68 -7 2 C-4.69 2 -2.38 2 0 2 C0 1.34 0 0.68 0 0 Z " fill="#F6BCBF" transform="translate(79,135)"/>
<path d="M0 0 C0.495 0.99 0.495 0.99 1 2 C-2.69158318 4.46105545 -5.46623554 4.25575793 -9.73046875 4.1953125 C-10.48088943 4.1924826 -11.23131012 4.18965271 -12.00447083 4.18673706 C-14.39897675 4.17555062 -16.79310731 4.15044928 -19.1875 4.125 C-20.81184355 4.11496819 -22.43619297 4.10584269 -24.06054688 4.09765625 C-28.040509 4.07561637 -32.02019088 4.0410974 -36 4 C-35.67 3.34 -35.34 2.68 -35 2 C-24.77 2.33 -14.54 2.66 -4 3 C-4 2.34 -4 1.68 -4 1 C-2.68 0.67 -1.36 0.34 0 0 Z " fill="#E74D54" transform="translate(65,99)"/>
<path d="M0 0 C0.66 0 1.32 0 2 0 C4.09230769 4.43076923 4.09230769 4.43076923 3.625 7.3125 C3.41875 7.869375 3.2125 8.42625 3 9 C2.01 8.67 1.02 8.34 0 8 C-0.33 8.99 -0.66 9.98 -1 11 C-1.125 3.375 -1.125 3.375 0 0 Z " fill="#EA5C63" transform="translate(103,94)"/>
<path d="M0 0 C1.32 0.33 2.64 0.66 4 1 C3.01 1 2.02 1 1 1 C1 1.66 1 2.32 1 3 C-0.32 3 -1.64 3 -3 3 C-3 3.66 -3 4.32 -3 5 C-7.29 5 -11.58 5 -16 5 C-16 4.67 -16 4.34 -16 4 C-13.03 4 -10.06 4 -7 4 C-7 3.34 -7 2.68 -7 2 C-4.69 2 -2.38 2 0 2 C0 1.34 0 0.68 0 0 Z " fill="#F19599" transform="translate(79,135)"/>
<path d="M0 0 C6.23408282 0.53742093 11.56840905 1.16314389 15.875 6.1875 C16.24625 6.785625 16.6175 7.38375 17 8 C15.02 7.34 13.04 6.68 11 6 C11 5.34 11 4.68 11 4 C10.37351563 3.87882813 9.74703125 3.75765625 9.1015625 3.6328125 C8.28429687 3.46523437 7.46703125 3.29765625 6.625 3.125 C5.81289062 2.96257813 5.00078125 2.80015625 4.1640625 2.6328125 C2 2 2 2 0 0 Z " fill="#EB6A70" transform="translate(133,7)"/>
<path d="M0 0 C0 0.33 0 0.66 0 1 C-2.97 1 -5.94 1 -9 1 C-9 1.66 -9 2.32 -9 3 C-10.65 3 -12.3 3 -14 3 C-14 3.66 -14 4.32 -14 5 C-15.32 4.67 -16.64 4.34 -18 4 C-11.97181491 -0.28670939 -7.28695785 -0.474377 0 0 Z " fill="#E9575E" transform="translate(49,8)"/>
<path d="M0 0 C0.33 1.32 0.66 2.64 1 4 C-1.31 5.98 -3.62 7.96 -6 10 C-4.21739173 6.43478346 -2.24007711 3.28544643 0 0 Z " fill="#EE7C81" transform="translate(96,119)"/>
</svg>
