<?xml version="1.0" encoding="UTF-8"?>
<svg version="1.1" xmlns="http://www.w3.org/2000/svg" width="32" height="32">
<path d="M0 0 C10.56 0 21.12 0 32 0 C32 10.56 32 21.12 32 32 C21.44 32 10.88 32 0 32 C0 21.44 0 10.88 0 0 Z " fill="#FDF4F5" transform="translate(0,0)"/>
<path d="M0 0 C2.15377564 2.62198774 3.40072174 4.64404172 4 8 C6.31 8 8.62 8 11 8 C9.125 11.875 9.125 11.875 8 13 C4.7383399 13.3061105 1.46176264 13.2783694 -1.8125 13.3125 C-2.72837891 13.34150391 -3.64425781 13.37050781 -4.58789062 13.40039062 C-11.3739833 13.46464351 -11.3739833 13.46464351 -14.63671875 11.04296875 C-16 9 -16 9 -16 8 C-15.16855469 7.97421875 -14.33710938 7.9484375 -13.48046875 7.921875 C-11.85044922 7.83679688 -11.85044922 7.83679688 -10.1875 7.75 C-8.56908203 7.68039063 -8.56908203 7.68039063 -6.91796875 7.609375 C-3.92296853 7.26589318 -3.92296853 7.26589318 -2.17578125 5.140625 C-0.87498495 2.9242099 -0.87498495 2.9242099 0 0 Z " fill="#E2252E" transform="translate(18,17)"/>
<path d="M0 0 C0.81597656 -0.020625 1.63195313 -0.04125 2.47265625 -0.0625 C8.47500863 -0.10166706 8.47500863 -0.10166706 11.6953125 1.640625 C13.125 3.25 13.125 3.25 13.125 5.25 C10.815 5.25 8.505 5.25 6.125 5.25 C5.465 6.9 4.805 8.55 4.125 10.25 C3.465 10.25 2.805 10.25 2.125 10.25 C1.71636719 9.60546875 1.30773438 8.9609375 0.88671875 8.296875 C-0.75849656 5.96545892 -0.75849656 5.96545892 -3.79296875 5.640625 C-4.87191406 5.59421875 -5.95085938 5.5478125 -7.0625 5.5 C-8.14917969 5.44328125 -9.23585938 5.3865625 -10.35546875 5.328125 C-11.18691406 5.30234375 -12.01835937 5.2765625 -12.875 5.25 C-10.10955961 -0.87347515 -6.18063217 0.0386894 0 0 Z " fill="#E32A32" transform="translate(15.875,0.75)"/>
<path d="M0 0 C0.66 0 1.32 0 2 0 C2.98043964 2.94131891 3.11621202 4.82501665 3.09765625 7.88671875 C3.09515869 8.73194092 3.09266113 9.57716309 3.09008789 10.44799805 C3.08098389 11.51703369 3.07187988 12.58606934 3.0625 13.6875 C3.041875 17.090625 3.02125 20.49375 3 24 C-5.25 23.67 -13.5 23.34 -22 23 C-22 22.67 -22 22.34 -22 22 C-21.44014404 21.9906543 -20.88028809 21.98130859 -20.3034668 21.97167969 C-17.76391854 21.91795493 -15.22620889 21.83431813 -12.6875 21.75 C-11.80642578 21.73582031 -10.92535156 21.72164062 -10.01757812 21.70703125 C-4.9371324 21.66967182 -4.9371324 21.66967182 -0.89453125 18.953125 C-0.59933594 18.30859375 -0.30414062 17.6640625 0 17 C-2.31 17 -4.62 17 -7 17 C-7 16.67 -7 16.34 -7 16 C-4.69 16 -2.38 16 0 16 C-0.515625 14.96875 -1.03125 13.9375 -1.5625 12.875 C-3.1234163 9.23777051 -3.14044384 6.85996376 -2 3 C-1.34 2.01 -0.68 1.02 0 0 Z " fill="#F9D9DB" transform="translate(29,8)"/>
<path d="M0 0 C0.66 0 1.32 0 2 0 C2.97551509 2.92654527 3.16478088 4.94654996 3.1875 8 C3.20167969 8.86625 3.21585938 9.7325 3.23046875 10.625 C3 13 3 13 1 16 C-3.03414097 9.8876652 -3.03414097 9.8876652 -2.875 5.75 C-2 3 -2 3 0 0 Z " fill="#E53A42" transform="translate(29,8)"/>
<path d="M0 0 C7.92 0 15.84 0 24 0 C24 3.63 24 7.26 24 11 C23.34 9.68 22.68 8.36 22 7 C19.94660377 4.32787798 18.36617307 2.33545173 15.00146484 1.50927734 C12.719134 1.28573709 10.48047574 1.20479822 8.1875 1.1875 C7.39923828 1.16236328 6.61097656 1.13722656 5.79882812 1.11132812 C3.86641627 1.05277019 1.93315673 1.02344512 0 1 C0 0.67 0 0.34 0 0 Z " fill="#FEFBFB" transform="translate(8,0)"/>
<path d="M0 0 C1.98 0 3.96 0 6 0 C6 1.65 6 3.3 6 5 C3.69 5 1.38 5 -1 5 C-0.67 3.35 -0.34 1.7 0 0 Z " fill="#E2232B" transform="translate(6,13)"/>
</svg>
